<svg width="24" height="24" viewBox="0 0 24 24" fill="none" xmlns="http://www.w3.org/2000/svg">
<path fill-rule="evenodd" clip-rule="evenodd" d="M18.7504 22.5C18.5515 22.5 18.3607 22.421 18.22 22.2803C18.0794 22.1397 18.0004 21.9489 18.0004 21.75V2.25C18.0004 2.05109 18.0794 1.86032 18.22 1.71967C18.3607 1.57902 18.5515 1.5 18.7504 1.5C18.9493 1.5 19.14 1.57902 19.2807 1.71967C19.4213 1.86032 19.5004 2.05109 19.5004 2.25V21.75C19.5004 21.9489 19.4213 22.1397 19.2807 22.2803C19.14 22.421 18.9493 22.5 18.7504 22.5ZM15.0004 12C15.0004 12.1989 14.9213 12.3897 14.7807 12.5303C14.64 12.671 14.4493 12.75 14.2504 12.75H5.56086L8.78136 15.969C8.8511 16.0387 8.90641 16.1215 8.94415 16.2126C8.98189 16.3037 9.00131 16.4014 9.00131 16.5C9.00131 16.5986 8.98189 16.6963 8.94415 16.7874C8.90641 16.8785 8.8511 16.9613 8.78136 17.031C8.71163 17.1007 8.62885 17.156 8.53774 17.1938C8.44663 17.2315 8.34898 17.2509 8.25036 17.2509C8.15175 17.2509 8.0541 17.2315 7.96299 17.1938C7.87188 17.156 7.7891 17.1007 7.71936 17.031L3.21936 12.531C3.14952 12.4613 3.09411 12.3786 3.0563 12.2874C3.01849 12.1963 2.99902 12.0987 2.99902 12C2.99902 11.9013 3.01849 11.8037 3.0563 11.7125C3.09411 11.6214 3.14952 11.5387 3.21936 11.469L7.71936 6.969C7.86019 6.82817 8.0512 6.74905 8.25036 6.74905C8.44953 6.74905 8.64053 6.82817 8.78136 6.969C8.92219 7.10983 9.00131 7.30084 9.00131 7.5C9.00131 7.69916 8.92219 7.89017 8.78136 8.031L5.56086 11.25H14.2504C14.4493 11.25 14.64 11.329 14.7807 11.4697C14.9213 11.6103 15.0004 11.8011 15.0004 12Z" fill="#262626"/>
</svg>
