<svg width="24" height="24" viewBox="0 0 24 24" fill="none" xmlns="http://www.w3.org/2000/svg">
<path fill-rule="evenodd" clip-rule="evenodd" d="M18.0004 12C18.0004 12.1989 17.9213 12.3896 17.7807 12.5303C17.64 12.671 17.4493 12.75 17.2504 12.75H8.56086L11.7814 15.969C11.8511 16.0387 11.9064 16.1215 11.9441 16.2126C11.9819 16.3037 12.0013 16.4014 12.0013 16.5C12.0013 16.5986 11.9819 16.6962 11.9441 16.7873C11.9064 16.8785 11.8511 16.9612 11.7814 17.031C11.7116 17.1007 11.6288 17.156 11.5377 17.1938C11.4466 17.2315 11.349 17.2509 11.2504 17.2509C11.1517 17.2509 11.0541 17.2315 10.963 17.1938C10.8719 17.156 10.7891 17.1007 10.7194 17.031L6.21936 12.531C6.14952 12.4613 6.0941 12.3785 6.0563 12.2874C6.01849 12.1963 5.99902 12.0986 5.99902 12C5.99902 11.9013 6.01849 11.8036 6.0563 11.7125C6.0941 11.6214 6.14952 11.5386 6.21936 11.469L10.7194 6.96897C10.8602 6.82814 11.0512 6.74902 11.2504 6.74902C11.4495 6.74902 11.6405 6.82814 11.7814 6.96897C11.9222 7.1098 12.0013 7.30081 12.0013 7.49997C12.0013 7.69913 11.9222 7.89014 11.7814 8.03097L8.56086 11.25H17.2504C17.4493 11.25 17.64 11.329 17.7807 11.4696C17.9213 11.6103 18.0004 11.8011 18.0004 12Z" fill="#262626"/>
</svg>
