<svg width="24" height="24" viewBox="0 0 24 24" fill="none" xmlns="http://www.w3.org/2000/svg">
<path fill-rule="evenodd" clip-rule="evenodd" d="M11.9996 4.5C13.6206 4.50062 15.1977 5.02639 16.4948 5.99856C17.7919 6.97072 18.7391 8.33696 19.1945 9.89262C19.65 11.4483 19.5892 13.1096 19.0213 14.6278C18.4533 16.1461 17.4088 17.4394 16.0441 18.3142C14.6794 19.1889 13.0681 19.598 11.4514 19.4801C9.83472 19.3623 8.29973 18.7238 7.07635 17.6604C5.85297 16.597 5.00705 15.1658 4.66529 13.5813C4.32353 11.9968 4.50432 10.3442 5.18058 8.871C5.25419 8.69189 5.25567 8.49126 5.18471 8.31108C5.11376 8.13091 4.97586 7.98516 4.79989 7.90435C4.62392 7.82353 4.42351 7.81391 4.2406 7.8775C4.0577 7.94109 3.90647 8.07295 3.81858 8.2455C3.0071 10.0134 2.79024 11.9966 3.20048 13.8981C3.61072 15.7996 4.62599 17.5169 6.0942 18.793C7.56241 20.069 9.40453 20.835 11.3446 20.9762C13.2847 21.1175 15.2183 20.6263 16.8559 19.5764C18.4934 18.5264 19.7467 16.9742 20.428 15.1522C21.1093 13.3301 21.1819 11.3364 20.635 9.46967C20.0881 7.6029 18.9511 5.96357 17.3944 4.79723C15.8376 3.63089 13.9448 3.00033 11.9996 3V4.5Z" fill="#262626"/>
<path d="M11.9998 6.69913V0.801129C11.9998 0.729874 11.9794 0.660101 11.9412 0.599981C11.9029 0.539861 11.8484 0.491882 11.7838 0.461663C11.7193 0.431444 11.6475 0.420236 11.5768 0.42935C11.5062 0.438465 11.4395 0.467526 11.3848 0.513129L7.84479 3.46213C7.80259 3.49732 7.76864 3.54136 7.74534 3.59113C7.72204 3.6409 7.70996 3.69518 7.70996 3.75013C7.70996 3.80508 7.72204 3.85936 7.74534 3.90913C7.76864 3.9589 7.80259 4.00294 7.84479 4.03813L11.3848 6.98713C11.4395 7.03273 11.5062 7.06179 11.5768 7.07091C11.6475 7.08002 11.7193 7.06881 11.7838 7.0386C11.8484 7.00838 11.9029 6.9604 11.9412 6.90028C11.9794 6.84016 11.9998 6.77038 11.9998 6.69913Z" fill="#262626"/>
</svg>
