<svg width="24" height="24" viewBox="0 0 24 24" fill="none" xmlns="http://www.w3.org/2000/svg">
<path fill-rule="evenodd" clip-rule="evenodd" d="M3 3C3 2.20435 3.31607 1.44129 3.87868 0.87868C4.44129 0.316071 5.20435 0 6 0L18 0C18.7956 0 19.5587 0.316071 20.1213 0.87868C20.6839 1.44129 21 2.20435 21 3V23.25C20.9999 23.3857 20.9631 23.5188 20.8933 23.6351C20.8236 23.7515 20.7236 23.8468 20.604 23.9108C20.4844 23.9748 20.3497 24.0052 20.2142 23.9988C20.0787 23.9923 19.9474 23.9492 19.8345 23.874L12 19.6515L4.1655 23.874C4.05256 23.9492 3.92135 23.9923 3.78584 23.9988C3.65033 24.0052 3.5156 23.9748 3.396 23.9108C3.2764 23.8468 3.17641 23.7515 3.10667 23.6351C3.03694 23.5188 3.00007 23.3857 3 23.25V3ZM6 1.5C5.60218 1.5 5.22064 1.65804 4.93934 1.93934C4.65804 2.22064 4.5 2.60218 4.5 3V21.849L11.5845 18.126C11.7076 18.0441 11.8521 18.0004 12 18.0004C12.1479 18.0004 12.2924 18.0441 12.4155 18.126L19.5 21.849V3C19.5 2.60218 19.342 2.22064 19.0607 1.93934C18.7794 1.65804 18.3978 1.5 18 1.5H6Z" fill="#262626"/>
<path fill-rule="evenodd" clip-rule="evenodd" d="M16.281 7.71888C16.3508 7.78854 16.4062 7.87131 16.444 7.96242C16.4818 8.05354 16.5013 8.15122 16.5013 8.24988C16.5013 8.34853 16.4818 8.44621 16.444 8.53733C16.4062 8.62844 16.3508 8.71121 16.281 8.78088L11.781 13.2809C11.7113 13.3507 11.6285 13.4061 11.5374 13.4439C11.4463 13.4818 11.3486 13.5012 11.25 13.5012C11.1513 13.5012 11.0536 13.4818 10.9625 13.4439C10.8714 13.4061 10.7886 13.3507 10.719 13.2809L8.46897 11.0309C8.39924 10.9611 8.34392 10.8784 8.30619 10.7873C8.26845 10.6961 8.24902 10.5985 8.24902 10.4999C8.24902 10.4013 8.26845 10.3036 8.30619 10.2125C8.34392 10.1214 8.39924 10.0386 8.46897 9.96888C8.5387 9.89914 8.62149 9.84383 8.7126 9.80609C8.8037 9.76835 8.90136 9.74893 8.99997 9.74893C9.09859 9.74893 9.19624 9.76835 9.28735 9.80609C9.37846 9.84383 9.46124 9.89914 9.53097 9.96888L11.25 11.6894L15.219 7.71888C15.2886 7.64903 15.3714 7.59362 15.4625 7.55581C15.5536 7.518 15.6513 7.49854 15.75 7.49854C15.8486 7.49854 15.9463 7.518 16.0374 7.55581C16.1285 7.59362 16.2113 7.64903 16.281 7.71888Z" fill="#262626"/>
</svg>
