<svg width="24" height="24" viewBox="0 0 24 24" fill="none" xmlns="http://www.w3.org/2000/svg">
<g clip-path="url(#clip0_32_2550)">
<path fill-rule="evenodd" clip-rule="evenodd" d="M3 6C3 5.20435 3.31607 4.44129 3.87868 3.87868C4.44129 3.31607 5.20435 3 6 3H15C15.7956 3 16.5587 3.31607 17.1213 3.87868C17.6839 4.44129 18 5.20435 18 6V23.25C17.9999 23.3857 17.9631 23.5188 17.8933 23.6351C17.8236 23.7515 17.7236 23.8468 17.604 23.9108C17.4844 23.9748 17.3497 24.0052 17.2142 23.9988C17.0787 23.9923 16.9474 23.9492 16.8345 23.874L10.5 19.6515L4.1655 23.874C4.05256 23.9492 3.92135 23.9923 3.78584 23.9988C3.65033 24.0052 3.5156 23.9748 3.396 23.9108C3.2764 23.8468 3.17641 23.7515 3.10667 23.6351C3.03694 23.5188 3.00007 23.3857 3 23.25V6Z" fill="#262626"/>
<path fill-rule="evenodd" clip-rule="evenodd" d="M6.40234 1.5H18.0003C18.3982 1.5 18.7797 1.65804 19.061 1.93934C19.3423 2.22064 19.5003 2.60218 19.5003 3V20.652L19.8348 20.874C19.9478 20.9492 20.079 20.9923 20.2145 20.9988C20.35 21.0052 20.4847 20.9748 20.6043 20.9108C20.7239 20.8468 20.8239 20.7515 20.8937 20.6351C20.9634 20.5188 21.0003 20.3857 21.0003 20.25V3C21.0003 2.20435 20.6843 1.44129 20.1217 0.87868C19.5591 0.316071 18.796 0 18.0003 0L9.00034 0C8.47375 1.33777e-05 7.95643 0.138639 7.50039 0.401943C7.04434 0.665247 6.66564 1.04395 6.40234 1.5Z" fill="#262626"/>
</g>
<defs>
<clipPath id="clip0_32_2550">
<rect width="24" height="24" fill="white"/>
</clipPath>
</defs>
</svg>
