<svg width="24" height="24" viewBox="0 0 24 24" fill="none" xmlns="http://www.w3.org/2000/svg">
<g clip-path="url(#clip0_32_2618)">
<path fill-rule="evenodd" clip-rule="evenodd" d="M5.25 9C5.05109 9 4.86032 9.07902 4.71967 9.21967C4.57902 9.36032 4.5 9.55109 4.5 9.75V21.75C4.5 21.9489 4.57902 22.1397 4.71967 22.2803C4.86032 22.421 5.05109 22.5 5.25 22.5H18.75C18.9489 22.5 19.1397 22.421 19.2803 22.2803C19.421 22.1397 19.5 21.9489 19.5 21.75V9.75C19.5 9.55109 19.421 9.36032 19.2803 9.21967C19.1397 9.07902 18.9489 9 18.75 9H15.75C15.5511 9 15.3603 8.92098 15.2197 8.78033C15.079 8.63968 15 8.44891 15 8.25C15 8.05109 15.079 7.86032 15.2197 7.71967C15.3603 7.57902 15.5511 7.5 15.75 7.5H18.75C19.3467 7.5 19.919 7.73705 20.341 8.15901C20.7629 8.58097 21 9.15326 21 9.75V21.75C21 22.3467 20.7629 22.919 20.341 23.341C19.919 23.7629 19.3467 24 18.75 24H5.25C4.65326 24 4.08097 23.7629 3.65901 23.341C3.23705 22.919 3 22.3467 3 21.75V9.75C3 9.15326 3.23705 8.58097 3.65901 8.15901C4.08097 7.73705 4.65326 7.5 5.25 7.5H8.25C8.44891 7.5 8.63968 7.57902 8.78033 7.71967C8.92098 7.86032 9 8.05109 9 8.25C9 8.44891 8.92098 8.63968 8.78033 8.78033C8.63968 8.92098 8.44891 9 8.25 9H5.25Z" fill="#262626"/>
<path fill-rule="evenodd" clip-rule="evenodd" d="M11.469 0.218876C11.5386 0.149031 11.6214 0.0936167 11.7125 0.055807C11.8036 0.0179974 11.9013 -0.00146484 12 -0.00146484C12.0986 -0.00146484 12.1963 0.0179974 12.2874 0.055807C12.3785 0.0936167 12.4613 0.149031 12.531 0.218876L17.031 4.71888C17.1718 4.85971 17.2509 5.05071 17.2509 5.24988C17.2509 5.44904 17.1718 5.64005 17.031 5.78088C16.8901 5.92171 16.6991 6.00082 16.5 6.00082C16.3008 6.00082 16.1098 5.92171 15.969 5.78088L12.75 2.56038V15.7499C12.75 15.9488 12.671 16.1396 12.5303 16.2802C12.3896 16.4209 12.1989 16.4999 12 16.4999C11.8011 16.4999 11.6103 16.4209 11.4696 16.2802C11.329 16.1396 11.25 15.9488 11.25 15.7499V2.56038L8.03097 5.78088C7.96124 5.85061 7.87846 5.90592 7.78735 5.94366C7.69624 5.9814 7.59859 6.00082 7.49997 6.00082C7.30081 6.00082 7.1098 5.92171 6.96897 5.78088C6.89924 5.71114 6.84392 5.62836 6.80619 5.53725C6.76845 5.44614 6.74902 5.34849 6.74902 5.24988C6.74902 5.05071 6.82814 4.85971 6.96897 4.71888L11.469 0.218876Z" fill="#262626"/>
</g>
<defs>
<clipPath id="clip0_32_2618">
<rect width="24" height="24" fill="white"/>
</clipPath>
</defs>
</svg>
