<svg width="24" height="24" viewBox="0 0 24 24" fill="none" xmlns="http://www.w3.org/2000/svg">
<g clip-path="url(#clip0_32_2657)">
<path fill-rule="evenodd" clip-rule="evenodd" d="M4.57544 4.57498C3.60031 5.55001 2.82679 6.70757 2.29905 7.98155C1.77131 9.25554 1.49968 10.621 1.49968 12C1.49968 13.3789 1.77131 14.7444 2.29905 16.0184C2.82679 17.2924 3.60031 18.4499 4.57544 19.425C4.71206 19.5664 4.78765 19.7559 4.78594 19.9525C4.78423 20.1492 4.70536 20.3373 4.5663 20.4763C4.42725 20.6154 4.23914 20.6943 4.04249 20.696C3.84584 20.6977 3.65639 20.6221 3.51494 20.4855C2.40057 19.3712 1.5166 18.0483 0.913505 16.5923C0.31041 15.1364 0 13.5759 0 12C0 10.4241 0.31041 8.86358 0.913505 7.40763C1.5166 5.95169 2.40057 4.62879 3.51494 3.51448C3.65639 3.37786 3.84584 3.30226 4.04249 3.30397C4.23914 3.30568 4.42725 3.38456 4.5663 3.52361C4.70536 3.66267 4.78423 3.85078 4.78594 4.04743C4.78765 4.24407 4.71206 4.43352 4.57544 4.57498ZM7.75844 7.75798C6.63361 8.88314 6.00172 10.409 6.00172 12C6.00172 13.591 6.63361 15.1168 7.75844 16.242C7.89927 16.3828 7.97838 16.5738 7.97838 16.773C7.97838 16.9721 7.89927 17.1631 7.75844 17.304C7.61761 17.4448 7.4266 17.5239 7.22744 17.5239C7.02827 17.5239 6.83727 17.4448 6.69644 17.304C5.99979 16.6075 5.44717 15.7806 5.07013 14.8706C4.6931 13.9605 4.49904 12.9851 4.49904 12C4.49904 11.0149 4.6931 10.0395 5.07013 9.12939C5.44717 8.21932 5.99979 7.39244 6.69644 6.69598C6.83727 6.55515 7.02827 6.47603 7.22744 6.47603C7.4266 6.47603 7.61761 6.55515 7.75844 6.69598C7.89927 6.83681 7.97838 7.02781 7.97838 7.22698C7.97838 7.42614 7.89927 7.61715 7.75844 7.75798ZM16.2424 6.69598C16.3121 6.62613 16.3949 6.57072 16.486 6.53291C16.5771 6.4951 16.6748 6.47564 16.7734 6.47564C16.8721 6.47564 16.9698 6.4951 17.0609 6.53291C17.152 6.57072 17.2348 6.62613 17.3044 6.69598C18.0011 7.39244 18.5537 8.21932 18.9307 9.12939C19.3078 10.0395 19.5018 11.0149 19.5018 12C19.5018 12.9851 19.3078 13.9605 18.9307 14.8706C18.5537 15.7806 18.0011 16.6075 17.3044 17.304C17.2347 17.3737 17.1519 17.429 17.0608 17.4668C16.9697 17.5045 16.8721 17.5239 16.7734 17.5239C16.6748 17.5239 16.5772 17.5045 16.4861 17.4668C16.395 17.429 16.3122 17.3737 16.2424 17.304C16.1727 17.2342 16.1174 17.1515 16.0797 17.0604C16.0419 16.9692 16.0225 16.8716 16.0225 16.773C16.0225 16.6744 16.0419 16.5767 16.0797 16.4856C16.1174 16.3945 16.1727 16.3117 16.2424 16.242C17.3673 15.1168 17.9992 13.591 17.9992 12C17.9992 10.409 17.3673 8.88314 16.2424 7.75798C16.1726 7.68831 16.1172 7.60555 16.0794 7.51443C16.0416 7.42331 16.0221 7.32563 16.0221 7.22698C16.0221 7.12833 16.0416 7.03064 16.0794 6.93953C16.1172 6.84841 16.1726 6.76565 16.2424 6.69598ZM19.4254 3.51598C19.5661 3.37537 19.7568 3.29639 19.9557 3.29639C20.1546 3.29639 20.3453 3.37537 20.4859 3.51598C22.736 5.76637 24.0001 8.81839 24.0001 12.0007C24.0001 15.1831 22.736 18.2351 20.4859 20.4855C20.3445 20.6221 20.155 20.6977 19.9584 20.696C19.7617 20.6943 19.5736 20.6154 19.4346 20.4763C19.2955 20.3373 19.2166 20.1492 19.2149 19.9525C19.2132 19.7559 19.2888 19.5664 19.4254 19.425C20.4006 18.4499 21.1741 17.2924 21.7018 16.0184C22.2296 14.7444 22.5012 13.3789 22.5012 12C22.5012 10.621 22.2296 9.25554 21.7018 7.98155C21.1741 6.70757 20.4006 5.55001 19.4254 4.57498C19.2848 4.43433 19.2058 4.2436 19.2058 4.04473C19.2058 3.84585 19.2848 3.65512 19.4254 3.51448V3.51598Z" fill="#262626"/>
<path d="M15 12C15 12.7956 14.6839 13.5587 14.1213 14.1213C13.5587 14.6839 12.7956 15 12 15C11.2044 15 10.4413 14.6839 9.87868 14.1213C9.31607 13.5587 9 12.7956 9 12C9 11.2044 9.31607 10.4413 9.87868 9.87868C10.4413 9.31607 11.2044 9 12 9C12.7956 9 13.5587 9.31607 14.1213 9.87868C14.6839 10.4413 15 11.2044 15 12Z" fill="#262626"/>
</g>
<defs>
<clipPath id="clip0_32_2657">
<rect width="24" height="24" fill="white"/>
</clipPath>
</defs>
</svg>
