<svg width="24" height="24" viewBox="0 0 24 24" fill="none" xmlns="http://www.w3.org/2000/svg">
<path fill-rule="evenodd" clip-rule="evenodd" d="M20.781 5.46888C20.8508 5.53854 20.9062 5.62131 20.944 5.71243C20.9818 5.80354 21.0013 5.90123 21.0013 5.99988C21.0013 6.09853 20.9818 6.19621 20.944 6.28733C20.9062 6.37844 20.8508 6.46121 20.781 6.53088L10.281 17.0309C10.2113 17.1007 10.1285 17.1561 10.0374 17.1939C9.9463 17.2318 9.84862 17.2512 9.74997 17.2512C9.65132 17.2512 9.55364 17.2318 9.46252 17.1939C9.3714 17.1561 9.28864 17.1007 9.21897 17.0309L3.96897 11.7809C3.82814 11.64 3.74902 11.449 3.74902 11.2499C3.74902 11.0507 3.82814 10.8597 3.96897 10.7189C4.1098 10.578 4.30081 10.4989 4.49997 10.4989C4.69913 10.4989 4.89014 10.578 5.03097 10.7189L9.74997 15.4394L19.719 5.46888C19.7886 5.39903 19.8714 5.34362 19.9625 5.30581C20.0536 5.268 20.1513 5.24854 20.25 5.24854C20.3486 5.24854 20.4463 5.268 20.5374 5.30581C20.6285 5.34362 20.7113 5.39903 20.781 5.46888Z" fill="#262626"/>
</svg>
