<svg width="24" height="24" viewBox="0 0 24 24" fill="none" xmlns="http://www.w3.org/2000/svg">
<g clip-path="url(#clip0_32_3038)">
<path fill-rule="evenodd" clip-rule="evenodd" d="M12 22.5C14.7848 22.5 17.4555 21.3938 19.4246 19.4246C21.3938 17.4555 22.5 14.7848 22.5 12C22.5 9.21523 21.3938 6.54451 19.4246 4.57538C17.4555 2.60625 14.7848 1.5 12 1.5C9.21523 1.5 6.54451 2.60625 4.57538 4.57538C2.60625 6.54451 1.5 9.21523 1.5 12C1.5 14.7848 2.60625 17.4555 4.57538 19.4246C6.54451 21.3938 9.21523 22.5 12 22.5ZM12 24C15.1826 24 18.2348 22.7357 20.4853 20.4853C22.7357 18.2348 24 15.1826 24 12C24 8.8174 22.7357 5.76516 20.4853 3.51472C18.2348 1.26428 15.1826 0 12 0C8.8174 0 5.76516 1.26428 3.51472 3.51472C1.26428 5.76516 0 8.8174 0 12C0 15.1826 1.26428 18.2348 3.51472 20.4853C5.76516 22.7357 8.8174 24 12 24Z" fill="#262626"/>
<path fill-rule="evenodd" clip-rule="evenodd" d="M16.455 7.45493C16.6649 7.24684 16.9483 7.12973 17.2439 7.12891C17.5395 7.1281 17.8235 7.24364 18.0346 7.45057C18.2456 7.6575 18.3668 7.93919 18.3718 8.23473C18.3769 8.53028 18.2654 8.81593 18.0615 9.02993L12.0735 16.5149C11.9706 16.6258 11.8464 16.7147 11.7083 16.7765C11.5702 16.8382 11.4211 16.8715 11.2699 16.8743C11.1186 16.8771 10.9684 16.8494 10.8281 16.7928C10.6879 16.7362 10.5604 16.6519 10.4535 16.5449L6.48599 12.5759C6.37546 12.4729 6.28681 12.3487 6.22532 12.2107C6.16383 12.0727 6.13077 11.9238 6.1281 11.7727C6.12544 11.6217 6.15323 11.4716 6.20981 11.3315C6.26639 11.1915 6.35061 11.0642 6.45743 10.9574C6.56426 10.8505 6.69151 10.7663 6.8316 10.7097C6.97168 10.6532 7.12172 10.6254 7.27278 10.628C7.42383 10.6307 7.5728 10.6638 7.7108 10.7253C7.8488 10.7867 7.973 10.8754 8.07599 10.9859L11.217 14.1254L16.4265 7.48793C16.4358 7.47631 16.4458 7.46529 16.4565 7.45493H16.455Z" fill="#262626"/>
</g>
<defs>
<clipPath id="clip0_32_3038">
<rect width="24" height="24" fill="white"/>
</clipPath>
</defs>
</svg>
