<svg width="24" height="24" viewBox="0 0 24 24" fill="none" xmlns="http://www.w3.org/2000/svg">
<path fill-rule="evenodd" clip-rule="evenodd" d="M2.46936 6.96888C2.53903 6.89903 2.6218 6.84362 2.71291 6.80581C2.80403 6.768 2.90171 6.74854 3.00036 6.74854C3.09902 6.74854 3.1967 6.768 3.28781 6.80581C3.37893 6.84362 3.4617 6.89903 3.53136 6.96888L12.0004 15.4394L20.4694 6.96888C20.5391 6.89914 20.6219 6.84383 20.713 6.80609C20.8041 6.76835 20.9017 6.74893 21.0004 6.74893C21.099 6.74893 21.1966 6.76835 21.2877 6.80609C21.3788 6.84383 21.4616 6.89914 21.5314 6.96888C21.6011 7.03861 21.6564 7.12139 21.6941 7.2125C21.7319 7.30361 21.7513 7.40126 21.7513 7.49988C21.7513 7.59849 21.7319 7.69614 21.6941 7.78725C21.6564 7.87836 21.6011 7.96114 21.5314 8.03088L12.5314 17.0309C12.4617 17.1007 12.3789 17.1561 12.2878 17.1939C12.1967 17.2318 12.099 17.2512 12.0004 17.2512C11.9017 17.2512 11.804 17.2318 11.7129 17.1939C11.6218 17.1561 11.539 17.1007 11.4694 17.0309L2.46936 8.03088C2.39952 7.96121 2.34411 7.87844 2.3063 7.78733C2.26849 7.69621 2.24902 7.59853 2.24902 7.49988C2.24902 7.40122 2.26849 7.30354 2.3063 7.21243C2.34411 7.12131 2.39952 7.03854 2.46936 6.96888Z" fill="#262626"/>
</svg>
