<svg width="24" height="24" viewBox="0 0 24 24" fill="none" xmlns="http://www.w3.org/2000/svg">
<path fill-rule="evenodd" clip-rule="evenodd" d="M5.47034 13.7177C5.54001 13.6478 5.62277 13.5924 5.71389 13.5546C5.80501 13.5168 5.90269 13.4973 6.00134 13.4973C6.09999 13.4973 6.19767 13.5168 6.28879 13.5546C6.37991 13.5924 6.46267 13.6478 6.53234 13.7177L12.0013 19.1882L17.4703 13.7177C17.6112 13.5768 17.8022 13.4977 18.0013 13.4977C18.2005 13.4977 18.3915 13.5768 18.5323 13.7177C18.6732 13.8585 18.7523 14.0495 18.7523 14.2487C18.7523 14.4478 18.6732 14.6388 18.5323 14.7797L12.5323 20.7797C12.4627 20.8495 12.3799 20.9049 12.2888 20.9427C12.1977 20.9805 12.1 21 12.0013 21C11.9027 21 11.805 20.9805 11.7139 20.9427C11.6228 20.9049 11.54 20.8495 11.4703 20.7797L5.47034 14.7797C5.4005 14.71 5.34508 14.6272 5.30727 14.5361C5.26946 14.445 5.25 14.3473 5.25 14.2487C5.25 14.15 5.26946 14.0523 5.30727 13.9612C5.34508 13.8701 5.4005 13.7873 5.47034 13.7177Z" fill="#262626"/>
<path fill-rule="evenodd" clip-rule="evenodd" d="M5.46936 10.2809C5.53903 10.3507 5.6218 10.4061 5.71291 10.4439C5.80403 10.4818 5.90171 10.5012 6.00036 10.5012C6.09902 10.5012 6.1967 10.4818 6.28781 10.4439C6.37893 10.4061 6.4617 10.3507 6.53136 10.2809L12.0004 4.81038L17.4694 10.2809C17.6102 10.4217 17.8012 10.5008 18.0004 10.5008C18.1995 10.5008 18.3905 10.4217 18.5314 10.2809C18.6722 10.14 18.7513 9.94904 18.7513 9.74988C18.7513 9.55071 18.6722 9.35971 18.5314 9.21888L12.5314 3.21888C12.4617 3.14903 12.3789 3.09362 12.2878 3.05581C12.1967 3.018 12.099 2.99854 12.0004 2.99854C11.9017 2.99854 11.804 3.018 11.7129 3.05581C11.6218 3.09362 11.539 3.14903 11.4694 3.21888L5.46936 9.21888C5.39952 9.28854 5.34411 9.37131 5.3063 9.46243C5.26849 9.55354 5.24902 9.65123 5.24902 9.74988C5.24902 9.84853 5.26849 9.94621 5.3063 10.0373C5.34411 10.1284 5.39952 10.2112 5.46936 10.2809Z" fill="#262626"/>
</svg>
