<svg width="24" height="24" viewBox="0 0 24 24" fill="none" xmlns="http://www.w3.org/2000/svg">
<path fill-rule="evenodd" clip-rule="evenodd" d="M0.75 14.8501C0.948912 14.8501 1.13968 14.9291 1.28033 15.0698C1.42098 15.2104 1.5 15.4012 1.5 15.6001V19.3501C1.5 19.7479 1.65804 20.1295 1.93934 20.4108C2.22064 20.6921 2.60218 20.8501 3 20.8501H21C21.3978 20.8501 21.7794 20.6921 22.0607 20.4108C22.342 20.1295 22.5 19.7479 22.5 19.3501V15.6001C22.5 15.4012 22.579 15.2104 22.7197 15.0698C22.8603 14.9291 23.0511 14.8501 23.25 14.8501C23.4489 14.8501 23.6397 14.9291 23.7803 15.0698C23.921 15.2104 24 15.4012 24 15.6001V19.3501C24 20.1457 23.6839 20.9088 23.1213 21.4714C22.5587 22.034 21.7956 22.3501 21 22.3501H3C2.20435 22.3501 1.44129 22.034 0.87868 21.4714C0.316071 20.9088 0 20.1457 0 19.3501V15.6001C0 15.4012 0.0790176 15.2104 0.21967 15.0698C0.360322 14.9291 0.551088 14.8501 0.75 14.8501Z" fill="#262626"/>
<path fill-rule="evenodd" clip-rule="evenodd" d="M11.4699 17.781C11.5396 17.8508 11.6224 17.9063 11.7135 17.9441C11.8046 17.9819 11.9023 18.0013 12.0009 18.0013C12.0996 18.0013 12.1973 17.9819 12.2884 17.9441C12.3795 17.9063 12.4623 17.8508 12.5319 17.781L17.0319 13.281C17.1728 13.1402 17.2519 12.9492 17.2519 12.75C17.2519 12.5508 17.1728 12.3598 17.0319 12.219C16.8911 12.0782 16.7001 11.9991 16.5009 11.9991C16.3018 11.9991 16.1108 12.0782 15.9699 12.219L12.7509 15.4395V2.25C12.7509 2.05109 12.6719 1.86032 12.5313 1.71967C12.3906 1.57902 12.1999 1.5 12.0009 1.5C11.802 1.5 11.6113 1.57902 11.4706 1.71967C11.33 1.86032 11.2509 2.05109 11.2509 2.25V15.4395L8.03195 12.219C7.89112 12.0782 7.70011 11.9991 7.50095 11.9991C7.30178 11.9991 7.11078 12.0782 6.96995 12.219C6.82912 12.3598 6.75 12.5508 6.75 12.75C6.75 12.9492 6.82912 13.1402 6.96995 13.281L11.4699 17.781Z" fill="#262626"/>
</svg>
