<svg width="25" height="24" viewBox="0 0 25 24" fill="none" xmlns="http://www.w3.org/2000/svg">
<g clip-path="url(#clip0_32_3446)">
<path fill-rule="evenodd" clip-rule="evenodd" d="M11.7062 3.02417C11.6739 3.04474 11.6475 3.07431 11.6299 3.10967L1.94946 20.6102C1.92535 20.6513 1.91233 20.6986 1.91183 20.747C1.91133 20.7954 1.92337 20.843 1.94664 20.8847C1.96923 20.9297 1.99887 20.9597 2.02287 20.9747C2.04405 20.9897 2.07087 21.0002 2.11605 21.0002H21.4756C21.5083 21.0014 21.5407 20.9926 21.5688 20.9747C21.6014 20.9521 21.6281 20.9212 21.6464 20.8847C21.6695 20.8429 21.6813 20.7952 21.6805 20.7468C21.6798 20.6984 21.6665 20.6511 21.6422 20.6102L11.9631 3.10967C11.9455 3.07431 11.9192 3.04474 11.8869 3.02417C11.8592 3.00805 11.8281 2.99978 11.7965 3.00017C11.765 2.99978 11.7338 3.00805 11.7062 3.02417ZM13.18 2.34917C13.0403 2.09052 12.8388 1.87562 12.5959 1.72618C12.353 1.57674 12.0772 1.49805 11.7965 1.49805C11.5158 1.49805 11.2401 1.57674 10.9972 1.72618C10.7542 1.87562 10.5527 2.09052 10.413 2.34917L0.73252 19.8497C0.0873437 21.0167 0.860991 22.5002 2.11605 22.5002H21.4756C22.7306 22.5002 23.5057 21.0152 22.8591 19.8497L13.18 2.34917Z" fill="#262626"/>
<path d="M10.3848 18.0002C10.3848 17.8032 10.4213 17.6081 10.4922 17.4262C10.5632 17.2442 10.6672 17.0788 10.7983 16.9395C10.9294 16.8002 11.085 16.6897 11.2563 16.6144C11.4276 16.539 11.6111 16.5002 11.7965 16.5002C11.9819 16.5002 12.1655 16.539 12.3368 16.6144C12.5081 16.6897 12.6637 16.8002 12.7948 16.9395C12.9259 17.0788 13.0299 17.2442 13.1008 17.4262C13.1718 17.6081 13.2083 17.8032 13.2083 18.0002C13.2083 18.398 13.0596 18.7795 12.7948 19.0608C12.53 19.3421 12.171 19.5002 11.7965 19.5002C11.4221 19.5002 11.063 19.3421 10.7983 19.0608C10.5335 18.7795 10.3848 18.398 10.3848 18.0002ZM10.5231 8.99268C10.5043 8.80344 10.5232 8.61211 10.5785 8.43112C10.6337 8.25012 10.7242 8.0835 10.844 7.94206C10.9638 7.80062 11.1103 7.68752 11.2739 7.6101C11.4375 7.53268 11.6146 7.49268 11.7937 7.49268C11.9728 7.49268 12.1499 7.53268 12.3135 7.6101C12.4771 7.68752 12.6236 7.80062 12.7434 7.94206C12.8632 8.0835 12.9537 8.25012 13.009 8.43112C13.0642 8.61211 13.0831 8.80344 13.0643 8.99268L12.5702 14.2532C12.5536 14.4598 12.4646 14.6523 12.3208 14.7926C12.177 14.9329 11.9889 15.0108 11.7937 15.0108C11.5985 15.0108 11.4104 14.9329 11.2666 14.7926C11.1228 14.6523 11.0338 14.4598 11.0172 14.2532L10.5231 8.99268Z" fill="#262626"/>
</g>
<defs>
<clipPath id="clip0_32_3446">
<rect width="24" height="24" fill="white" transform="translate(0.5)"/>
</clipPath>
</defs>
</svg>
