<svg width="24" height="24" viewBox="0 0 24 24" fill="none" xmlns="http://www.w3.org/2000/svg">
<path fill-rule="evenodd" clip-rule="evenodd" d="M12.68 2.34917C12.5403 2.09052 12.3388 1.87562 12.0959 1.72618C11.853 1.57674 11.5772 1.49805 11.2965 1.49805C11.0158 1.49805 10.7401 1.57674 10.4972 1.72618C10.2542 1.87562 10.0527 2.09052 9.91299 2.34917L0.23252 19.8497C-0.412656 21.0167 0.360991 22.5002 1.61605 22.5002H20.9756C22.2306 22.5002 23.0057 21.0152 22.3591 19.8497L12.68 2.34917ZM11.2937 7.50017C11.1153 7.50028 10.9388 7.5401 10.7758 7.61706C10.6127 7.69403 10.4666 7.80643 10.3469 7.94704C10.2272 8.08764 10.1365 8.25333 10.0808 8.43342C10.025 8.61351 10.0054 8.80402 10.0231 8.99267L10.5172 14.2532C10.5338 14.4598 10.6228 14.6523 10.7666 14.7926C10.9104 14.9329 11.0985 15.0108 11.2937 15.0108C11.4889 15.0108 11.677 14.9329 11.8208 14.7926C11.9646 14.6523 12.0536 14.4598 12.0702 14.2532L12.5643 8.99267C12.582 8.80402 12.5624 8.61351 12.5066 8.43342C12.4509 8.25333 12.3602 8.08764 12.2405 7.94704C12.1208 7.80643 11.9747 7.69403 11.8116 7.61706C11.6486 7.5401 11.4721 7.50028 11.2937 7.50017ZM11.2965 16.5002C10.9221 16.5002 10.563 16.6582 10.2983 16.9395C10.0335 17.2208 9.88476 17.6023 9.88476 18.0002C9.88476 18.398 10.0335 18.7795 10.2983 19.0608C10.563 19.3421 10.9221 19.5002 11.2965 19.5002C11.6709 19.5002 12.03 19.3421 12.2948 19.0608C12.5595 18.7795 12.7083 18.398 12.7083 18.0002C12.7083 17.6023 12.5595 17.2208 12.2948 16.9395C12.03 16.6582 11.6709 16.5002 11.2965 16.5002Z" fill="#262626"/>
</svg>
