<svg width="24" height="24" viewBox="0 0 24 24" fill="none" xmlns="http://www.w3.org/2000/svg">
<path d="M16.185 19.368L13.764 16.9455C12.8278 17.2802 11.8157 17.3422 10.8456 17.1243C9.87554 16.9063 8.98729 16.4173 8.28423 15.7143C7.58117 15.0112 7.09221 14.123 6.87424 13.1529C6.65628 12.1828 6.71827 11.1707 7.053 10.2345L3.963 7.1445C1.407 9.417 0 12 0 12C0 12 4.5 20.25 12 20.25C13.4406 20.245 14.8649 19.9448 16.185 19.368ZM7.815 4.632C9.13508 4.05514 10.5594 3.75496 12 3.75C19.5 3.75 24 12 24 12C24 12 22.5915 14.5815 20.0385 16.857L16.9455 13.764C17.2802 12.8278 17.3422 11.8157 17.1243 10.8456C16.9063 9.87554 16.4173 8.98729 15.7143 8.28423C15.0112 7.58117 14.123 7.09221 13.1529 6.87424C12.1828 6.65628 11.1707 6.71827 10.2345 7.053L7.815 4.6335V4.632Z" fill="#262626"/>
<path d="M8.28783 11.4689C8.20532 12.0453 8.2582 12.6331 8.44228 13.1856C8.62636 13.7381 8.93657 14.2401 9.34835 14.6519C9.76013 15.0636 10.2621 15.3739 10.8146 15.5579C11.3671 15.742 11.9549 15.7949 12.5313 15.7124L8.28633 11.4689H8.28783ZM15.7128 12.5309L11.4693 8.28588C12.0458 8.20337 12.6336 8.25625 13.186 8.44032C13.7385 8.6244 14.2405 8.93462 14.6523 9.3464C15.0641 9.75817 15.3743 10.2602 15.5584 10.8127C15.7425 11.3652 15.7953 11.9529 15.7128 12.5294V12.5309Z" fill="#262626"/>
<path fill-rule="evenodd" clip-rule="evenodd" d="M20.4697 21.5312L2.46973 3.53124L3.53173 2.46924L21.5317 20.4692L20.4697 21.5312Z" fill="#262626"/>
</svg>
