<svg width="24" height="24" viewBox="0 0 24 24" fill="none" xmlns="http://www.w3.org/2000/svg">
<g clip-path="url(#clip0_32_3460)">
<path d="M20.0399 16.857C22.5914 14.58 24.0014 12 24.0014 12C24.0014 12 19.5014 3.75 12.0014 3.75C10.5608 3.75496 9.13649 4.05514 7.81641 4.632L8.97141 5.7885C9.94256 5.43473 10.9678 5.25252 12.0014 5.25C15.1814 5.25 17.8199 7.002 19.7534 8.9355C20.6839 9.87104 21.5181 10.8977 22.2434 12C22.1564 12.1305 22.0604 12.2745 21.9509 12.432C21.4484 13.152 20.7059 14.112 19.7534 15.0645C19.5059 15.312 19.2479 15.5565 18.9779 15.7935L20.0399 16.857Z" fill="#262626"/>
<path d="M16.946 13.764C17.2808 12.8278 17.3427 11.8158 17.1248 10.8457C16.9068 9.87558 16.4179 8.98733 15.7148 8.28427C15.0117 7.58121 14.1235 7.09225 13.1534 6.87429C12.1833 6.65632 11.1713 6.71831 10.235 7.05304L11.4695 8.28754C12.046 8.20503 12.6338 8.25791 13.1862 8.44199C13.7387 8.62607 14.2407 8.93628 14.6525 9.34806C15.0643 9.75984 15.3745 10.2619 15.5586 10.8143C15.7427 11.3668 15.7955 11.9546 15.713 12.531L16.946 13.764ZM12.5315 15.7125L13.7645 16.9455C12.8283 17.2803 11.8163 17.3423 10.8462 17.1243C9.87607 16.9063 8.98782 16.4174 8.28476 15.7143C7.5817 15.0113 7.09274 14.123 6.87478 13.1529C6.65681 12.1828 6.7188 11.1708 7.05353 10.2345L8.28803 11.469C8.20552 12.0455 8.2584 12.6333 8.44248 13.1857C8.62655 13.7382 8.93677 14.2402 9.34855 14.652C9.76032 15.0638 10.2623 15.374 10.8148 15.5581C11.3673 15.7422 11.9551 15.7951 12.5315 15.7125Z" fill="#262626"/>
<path d="M5.025 8.20507C4.755 8.44507 4.4955 8.68807 4.248 8.93557C3.31747 9.8711 2.48328 10.8978 1.758 12.0001L2.0505 12.4321C2.553 13.1521 3.2955 14.1121 4.248 15.0646C6.1815 16.9981 8.8215 18.7501 12 18.7501C13.074 18.7501 14.085 18.5506 15.03 18.2101L16.185 19.3681C14.8649 19.9449 13.4406 20.2451 12 20.2501C4.5 20.2501 0 12.0001 0 12.0001C0 12.0001 1.4085 9.41857 3.9615 7.14307L5.0235 8.20657L5.025 8.20507Z" fill="#262626"/>
<path fill-rule="evenodd" clip-rule="evenodd" d="M20.4697 21.5312L2.46973 3.53124L3.53173 2.46924L21.5317 20.4692L20.4697 21.5312Z" fill="#262626"/>
</g>
<defs>
<clipPath id="clip0_32_3460">
<rect width="24" height="24" fill="white"/>
</clipPath>
</defs>
</svg>
