<svg width="24" height="24" viewBox="0 0 24 24" fill="none" xmlns="http://www.w3.org/2000/svg">
<path d="M6 0H14.25V1.5H6C5.60218 1.5 5.22064 1.65804 4.93934 1.93934C4.65804 2.22064 4.5 2.60218 4.5 3V21C4.5 21.3978 4.65804 21.7794 4.93934 22.0607C5.22064 22.342 5.60218 22.5 6 22.5H18C18.3978 22.5 18.7794 22.342 19.0607 22.0607C19.342 21.7794 19.5 21.3978 19.5 21V6.75H21V21C21 21.7956 20.6839 22.5587 20.1213 23.1213C19.5587 23.6839 18.7956 24 18 24H6C5.20435 24 4.44129 23.6839 3.87868 23.1213C3.31607 22.5587 3 21.7956 3 21V3C3 2.20435 3.31607 1.44129 3.87868 0.87868C4.44129 0.316071 5.20435 0 6 0V0Z" fill="#262626"/>
<path d="M14.25 4.5V0L21 6.75H16.5C15.9033 6.75 15.331 6.51295 14.909 6.09099C14.4871 5.66903 14.25 5.09674 14.25 4.5Z" fill="#262626"/>
<path fill-rule="evenodd" clip-rule="evenodd" d="M12.0009 17.9999C12.1999 17.9999 12.3906 17.9209 12.5313 17.7802C12.6719 17.6396 12.7509 17.4488 12.7509 17.2499V11.5604L14.4699 13.2809C14.6108 13.4217 14.8018 13.5008 15.0009 13.5008C15.2001 13.5008 15.3911 13.4217 15.5319 13.2809C15.6728 13.14 15.7519 12.949 15.7519 12.7499C15.7519 12.5507 15.6728 12.3597 15.5319 12.2189L12.5319 9.21888C12.4623 9.14903 12.3795 9.09362 12.2884 9.05581C12.1973 9.018 12.0996 8.99854 12.0009 8.99854C11.9023 8.99854 11.8046 9.018 11.7135 9.05581C11.6224 9.09362 11.5396 9.14903 11.4699 9.21888L8.46995 12.2189C8.32912 12.3597 8.25 12.5507 8.25 12.7499C8.25 12.949 8.32912 13.14 8.46995 13.2809C8.61078 13.4217 8.80178 13.5008 9.00095 13.5008C9.20011 13.5008 9.39112 13.4217 9.53195 13.2809L11.2509 11.5604V17.2499C11.2509 17.4488 11.33 17.6396 11.4706 17.7802C11.6113 17.9209 11.802 17.9999 12.0009 17.9999Z" fill="#262626"/>
</svg>
