<svg width="24" height="25" viewBox="0 0 24 25" fill="none" xmlns="http://www.w3.org/2000/svg">
<g id="heroicon">
<path id="Subtract" d="M12.0001 3.5C14.7548 3.5 17.4552 3.73205 20.0831 4.17767C20.6159 4.26803 21 4.73355 21 5.27402V6.31802C21 6.91476 20.7629 7.48705 20.341 7.90901L14.909 13.341C14.4871 13.7629 14.25 14.3352 14.25 14.932V17.8594C14.25 18.7117 13.7685 19.4908 13.0062 19.8719L9.75 21.5V14.932C9.75 14.3352 9.51295 13.7629 9.09099 13.341L3.65901 7.90901C3.23705 7.48705 3 6.91476 3 6.31802V5.27404C3 4.73357 3.38408 4.26805 3.91694 4.17769C6.54479 3.73206 9.24533 3.5 12.0001 3.5Z" stroke="#03212F" stroke-width="1.5" stroke-linecap="round" stroke-linejoin="round"/>
</g>
</svg>
