<svg width="15" height="15" viewBox="0 0 15 15" fill="none" xmlns="http://www.w3.org/2000/svg">
<path id="Subtract" d="M7.50004 1.5C9.3365 1.5 11.1368 1.6547 12.8887 1.95178C13.2439 2.01202 13.5 2.32237 13.5 2.68268V3.37868C13.5 3.7765 13.342 4.15803 13.0607 4.43934L9.43934 8.06066C9.15804 8.34196 9 8.7235 9 9.12132V11.0729C9 11.6411 8.679 12.1605 8.17082 12.4146L6 13.5V9.12132C6 8.7235 5.84196 8.34196 5.56066 8.06066L1.93934 4.43934C1.65804 4.15804 1.5 3.7765 1.5 3.37868V2.6827C1.5 2.32238 1.75605 2.01203 2.11129 1.95179C3.8632 1.6547 5.66355 1.5 7.50004 1.5Z" stroke="#7F858A" stroke-width="1.5" stroke-linecap="round" stroke-linejoin="round"/>
</svg>
