<svg width="24" height="24" viewBox="0 0 24 24" fill="none" xmlns="http://www.w3.org/2000/svg">
<g clip-path="url(#clip0_32_3849)">
<path fill-rule="evenodd" clip-rule="evenodd" d="M13.2665 2.45046C12.8975 1.19796 11.1245 1.19796 10.7555 2.45046L10.6145 2.92896C10.4959 3.33088 10.2889 3.70118 10.0087 4.01274C9.72843 4.3243 9.38206 4.56923 8.9949 4.72958C8.60775 4.88994 8.18963 4.96166 7.77117 4.93949C7.35271 4.91732 6.94451 4.80182 6.57647 4.60146L6.13847 4.36146C4.99247 3.73896 3.73847 4.99146 4.36247 6.13896L4.60097 6.57696C4.80133 6.945 4.91683 7.3532 4.939 7.77166C4.96117 8.19012 4.88945 8.60824 4.72909 8.99539C4.56874 9.38254 4.32381 9.72892 4.01225 10.0092C3.70069 10.2894 3.33039 10.4964 2.92847 10.615L2.44997 10.756C1.19747 11.125 1.19747 12.898 2.44997 13.267L2.92847 13.408C3.3306 13.5265 3.7011 13.7335 4.01282 14.0138C4.32454 14.2942 4.56956 14.6407 4.72994 15.0281C4.89031 15.4154 4.96197 15.8337 4.93965 16.2524C4.91734 16.671 4.80161 17.0794 4.60097 17.4475L4.36097 17.884C3.73847 19.03 4.99097 20.284 6.13847 19.66L6.57647 19.4215C6.94461 19.2211 7.35291 19.1057 7.77145 19.0836C8.18999 19.0615 8.60817 19.1334 8.99535 19.2939C9.38252 19.4544 9.72887 19.6995 10.009 20.0112C10.2892 20.3229 10.4961 20.6934 10.6145 21.0955L10.7555 21.5725C11.1245 22.825 12.8975 22.825 13.2665 21.5725L13.4075 21.094C13.526 20.6918 13.733 20.3213 14.0134 20.0096C14.2937 19.6979 14.6402 19.4529 15.0276 19.2925C15.4149 19.1321 15.8333 19.0605 16.2519 19.0828C16.6705 19.1051 17.0789 19.2208 17.447 19.4215L17.8835 19.6615C19.0295 20.284 20.2835 19.0315 19.6595 17.884L19.421 17.4475C19.2203 17.0793 19.1047 16.6708 19.0825 16.2521C19.0602 15.8334 19.132 15.415 19.2925 15.0276C19.4531 14.6403 19.6983 14.2937 20.0102 14.0135C20.322 13.7332 20.6927 13.5263 21.095 13.408L21.572 13.267C22.8245 12.898 22.8245 11.125 21.572 10.756L21.0935 10.615C20.6916 10.4964 20.3213 10.2894 20.0097 10.0092C19.6981 9.72892 19.4532 9.38254 19.2928 8.99539C19.1325 8.60824 19.0608 8.19012 19.0829 7.77166C19.1051 7.3532 19.2206 6.945 19.421 6.57696L19.661 6.13896C20.2835 4.99296 19.031 3.73896 17.8835 4.36296L17.447 4.60146C17.0788 4.80238 16.6703 4.91833 16.2515 4.9408C15.8327 4.96326 15.4142 4.89167 15.0266 4.73127C14.6391 4.57088 14.2924 4.32575 14.0119 4.01388C13.7315 3.702 13.5244 3.33129 13.406 2.92896L13.265 2.45046H13.2665ZM9.31697 2.02596C10.1075 -0.659043 13.9145 -0.659043 14.705 2.02596L14.846 2.50446C14.9012 2.69189 14.9976 2.86458 15.1282 3.00989C15.2589 3.15521 15.4203 3.26944 15.6009 3.34424C15.7814 3.41903 15.9763 3.45248 16.1714 3.44213C16.3666 3.43179 16.5569 3.37792 16.7285 3.28446L17.1665 3.04446C19.6265 1.70646 22.3175 4.39596 20.9765 6.85596L20.738 7.29396C20.6445 7.46555 20.5906 7.65587 20.5803 7.85099C20.57 8.0461 20.6034 8.24106 20.6782 8.42157C20.753 8.60208 20.8672 8.76356 21.0125 8.89418C21.1578 9.0248 21.3305 9.12125 21.518 9.17646L21.9965 9.31746C24.6815 10.108 24.6815 13.915 21.9965 14.7055L21.518 14.8465C21.3305 14.9017 21.1578 14.9981 21.0125 15.1287C20.8672 15.2594 20.753 15.4208 20.6782 15.6013C20.6034 15.7819 20.57 15.9768 20.5803 16.1719C20.5906 16.367 20.6445 16.5574 20.738 16.729L20.978 17.167C22.3175 19.627 19.625 22.318 17.1665 20.977L16.7285 20.7385C16.5569 20.645 16.3666 20.5911 16.1714 20.5808C15.9763 20.5704 15.7814 20.6039 15.6009 20.6787C15.4203 20.7535 15.2589 20.8677 15.1282 21.013C14.9976 21.1583 14.9012 21.331 14.846 21.5185L14.705 21.997C13.9145 24.682 10.1075 24.682 9.31697 21.997L9.17597 21.5185C9.12076 21.331 9.02432 21.1583 8.89369 21.013C8.76307 20.8677 8.60159 20.7535 8.42108 20.6787C8.24057 20.6039 8.04562 20.5704 7.8505 20.5808C7.65539 20.5911 7.46506 20.645 7.29347 20.7385L6.85547 20.9785C4.39547 22.318 1.70597 19.6255 3.04547 17.167L3.28397 16.729C3.37743 16.5574 3.4313 16.367 3.44165 16.1719C3.45199 15.9768 3.41854 15.7819 3.34375 15.6013C3.26895 15.4208 3.15472 15.2594 3.00941 15.1287C2.8641 14.9981 2.6914 14.9017 2.50397 14.8465L2.02547 14.7055C-0.659531 13.915 -0.659531 10.108 2.02547 9.31746L2.50397 9.17646C2.6914 9.12125 2.8641 9.0248 3.00941 8.89418C3.15472 8.76356 3.26895 8.60208 3.34375 8.42157C3.41854 8.24106 3.45199 8.0461 3.44165 7.85099C3.4313 7.65587 3.37743 7.46555 3.28397 7.29396L3.04397 6.85596C1.70597 4.39596 4.39697 1.70646 6.85547 3.04596L7.29347 3.28446C7.46506 3.37792 7.65539 3.43179 7.8505 3.44213C8.04562 3.45248 8.24057 3.41903 8.42108 3.34424C8.60159 3.26944 8.76307 3.15521 8.89369 3.00989C9.02432 2.86458 9.12076 2.69189 9.17597 2.50446L9.31697 2.02596Z" fill="#262626"/>
<path fill-rule="evenodd" clip-rule="evenodd" d="M11.9999 8.63086C11.1063 8.63086 10.2494 8.98581 9.61762 9.61762C8.98581 10.2494 8.63086 11.1063 8.63086 11.9999C8.63086 12.8934 8.98581 13.7503 9.61762 14.3821C10.2494 15.0139 11.1063 15.3689 11.9999 15.3689C12.8934 15.3689 13.7503 15.0139 14.3821 14.3821C15.0139 13.7503 15.3689 12.8934 15.3689 11.9999C15.3689 11.1063 15.0139 10.2494 14.3821 9.61762C13.7503 8.98581 12.8934 8.63086 11.9999 8.63086ZM7.13086 11.9999C7.13086 11.3605 7.2568 10.7273 7.50149 10.1366C7.74618 9.54584 8.10483 9.00909 8.55696 8.55696C9.00908 8.10483 9.54584 7.74618 10.1366 7.50149C10.7273 7.2568 11.3605 7.13086 11.9999 7.13086C12.6393 7.13086 13.2724 7.2568 13.8631 7.50149C14.4539 7.74618 14.9906 8.10483 15.4428 8.55696C15.8949 9.00909 16.2535 9.54584 16.4982 10.1366C16.7429 10.7273 16.8689 11.3605 16.8689 11.9999C16.8689 13.2912 16.3559 14.5296 15.4428 15.4428C14.5296 16.3559 13.2912 16.8689 11.9999 16.8689C10.7085 16.8689 9.47007 16.3559 8.55696 15.4428C7.64384 14.5296 7.13086 13.2912 7.13086 11.9999Z" fill="#262626"/>
</g>
<defs>
<clipPath id="clip0_32_3849">
<rect width="24" height="24" fill="white"/>
</clipPath>
</defs>
</svg>
