<svg width="24" height="25" viewBox="0 0 24 25" fill="none" xmlns="http://www.w3.org/2000/svg">
<g id="heroicon">
<path id="Vector" d="M8.25 7.25H20.25M8.25 12.5H20.25M8.25 17.75H20.25M3.75 7.25H3.7575V7.2575H3.75V7.25ZM4.125 7.25C4.125 7.45711 3.95711 7.625 3.75 7.625C3.54289 7.625 3.375 7.45711 3.375 7.25C3.375 7.04289 3.54289 6.875 3.75 6.875C3.95711 6.875 4.125 7.04289 4.125 7.25ZM3.75 12.5H3.7575V12.5075H3.75V12.5ZM4.125 12.5C4.125 12.7071 3.95711 12.875 3.75 12.875C3.54289 12.875 3.375 12.7071 3.375 12.5C3.375 12.2929 3.54289 12.125 3.75 12.125C3.95711 12.125 4.125 12.2929 4.125 12.5ZM3.75 17.75H3.7575V17.7575H3.75V17.75ZM4.125 17.75C4.125 17.9571 3.95711 18.125 3.75 18.125C3.54289 18.125 3.375 17.9571 3.375 17.75C3.375 17.5429 3.54289 17.375 3.75 17.375C3.95711 17.375 4.125 17.5429 4.125 17.75Z" stroke="#03212F" stroke-width="1.5" stroke-linecap="round" stroke-linejoin="round"/>
</g>
</svg>
