<svg width="24" height="24" viewBox="0 0 24 24" fill="none" xmlns="http://www.w3.org/2000/svg">
<path fill-rule="evenodd" clip-rule="evenodd" d="M12 4.9395L21 13.9395V20.25C21 20.8467 20.7629 21.419 20.341 21.841C19.919 22.2629 19.3467 22.5 18.75 22.5H5.25C4.65326 22.5 4.08097 22.2629 3.65901 21.841C3.23705 21.419 3 20.8467 3 20.25V13.9395L12 4.9395ZM19.5 3.75V9L16.5 6V3.75C16.5 3.55109 16.579 3.36032 16.7197 3.21967C16.8603 3.07902 17.0511 3 17.25 3H18.75C18.9489 3 19.1397 3.07902 19.2803 3.21967C19.421 3.36032 19.5 3.55109 19.5 3.75Z" fill="#262626"/>
<path fill-rule="evenodd" clip-rule="evenodd" d="M10.9404 2.25021C11.2217 1.96901 11.6032 1.81104 12.0009 1.81104C12.3987 1.81104 12.7802 1.96901 13.0614 2.25021L23.0319 12.2192C23.1728 12.36 23.2519 12.5511 23.2519 12.7502C23.2519 12.9494 23.1728 13.1404 23.0319 13.2812C22.8911 13.422 22.7001 13.5012 22.5009 13.5012C22.3018 13.5012 22.1108 13.422 21.9699 13.2812L12.0009 3.31071L2.03195 13.2812C1.89112 13.422 1.70011 13.5012 1.50095 13.5012C1.30178 13.5012 1.11078 13.422 0.969947 13.2812C0.829117 13.1404 0.75 12.9494 0.75 12.7502C0.75 12.5511 0.829117 12.36 0.969947 12.2192L10.9404 2.25021Z" fill="#262626"/>
</svg>
