<svg width="101" height="83" viewBox="0 0 101 83" fill="none" xmlns="http://www.w3.org/2000/svg">
<g id="Illust-nodata">
<path id="Vector" d="M48.8897 48.2117C48.8897 48.2117 24.3614 38.512 14.9275 31.8433L14.5586 64.9811C14.5586 64.9811 42.443 80.5493 48.8897 82.6708V48.2117Z" fill="#B9C0C6"/>
<path id="Vector_2" d="M86.9399 27.298C84.9494 28.5165 72.6616 35.2503 62.5814 40.7565C55.1333 44.8213 48.888 48.2132 48.888 48.2132C46.6616 48.4496 40.9258 45.9671 34.789 42.8616C32.006 41.4612 29.1475 39.9289 26.4918 38.4649C20.1145 34.9548 14.9258 31.8448 14.9258 31.8448L60.1711 13.353C62.0814 13.6622 65.789 15.3763 69.8503 17.4997C72.1192 18.6864 74.5012 20.0004 76.7418 21.2735C82.2701 24.4199 86.9399 27.298 86.9399 27.298Z" fill="#E2E4E6"/>
<path id="Vector_3" d="M48.8896 48.2116V82.6707C48.8896 82.6707 83.1665 57.3051 86.9401 55.7897V27.2964L48.8896 48.2116Z" fill="#E2E4E6"/>
<path id="Vector_4" d="M86.9407 27.298C84.9502 28.5165 72.6624 35.2503 62.5822 40.7565L60.1719 13.353C62.0823 13.6622 65.7898 15.3763 69.8511 17.4997C72.12 18.6864 74.5021 20.0004 76.7426 21.2735C82.2709 24.4199 86.9407 27.298 86.9407 27.298Z" fill="#7F858A"/>
<path id="Vector_5" d="M14.9261 31.8447L2.92285 15.7886L49.4639 0.32959L60.1714 13.3529L14.9261 31.8447Z" fill="#F5F6F7"/>
<path id="Vector_6" d="M60.1719 13.3528L71.1436 3.51221C71.1436 3.51221 92.2318 15.9399 100.251 17.7586L86.9407 27.2978L60.1719 13.3528Z" fill="#F5F6F7"/>
<path id="Vector_7" d="M86.9406 27.2979L96.7911 23.0635L58.9566 45.1908L48.8896 48.2117L86.9406 27.2979Z" fill="#F5F6F7"/>
<path id="Vector_8" d="M14.9259 31.8446L48.8891 48.2117L31.7236 49.1315L0.25 31.8433L14.9259 31.8446Z" fill="#F5F6F7"/>
</g>
</svg>
