<svg width="24" height="24" viewBox="0 0 24 24" fill="none" xmlns="http://www.w3.org/2000/svg">
<g clip-path="url(#clip0_32_4428)">
<path d="M23.9789 12.75H12.3119L4.06193 21C5.74606 22.4858 7.81336 23.4691 10.0287 23.8382C12.244 24.2073 14.5185 23.9473 16.5934 23.0878C18.6682 22.2283 20.4603 20.8037 21.7656 18.9762C23.071 17.1486 23.8373 14.9915 23.9774 12.75H23.9789ZM3.00143 19.938C1.51563 18.2538 0.532258 16.1865 0.163166 13.9712C-0.205926 11.7559 0.0540735 9.48143 0.913594 7.40654C1.77312 5.33166 3.19766 3.53962 5.0252 2.23425C6.85275 0.928875 9.00994 0.162561 11.2514 0.0224609V11.6895L3.00143 19.9395V19.938ZM12.7514 0.0224609V11.25H23.9789C23.7961 8.33214 22.5545 5.58139 20.4873 3.51413C18.42 1.44687 15.6693 0.205284 12.7514 0.0224609Z" fill="#262626"/>
</g>
<defs>
<clipPath id="clip0_32_4428">
<rect width="24" height="24" fill="white"/>
</clipPath>
</defs>
</svg>
