<svg width="25" height="24" viewBox="0 0 25 24" fill="none" xmlns="http://www.w3.org/2000/svg">
<g id="heroicon">
<path id="Vector" d="M12.25 16.5L12.25 9.75M12.25 9.75L15.25 12.75M12.25 9.75L9.25 12.75M7 19.5C4.51472 19.5 2.5 17.4853 2.5 15C2.5 13.0071 3.79555 11.3167 5.5904 10.7252C5.53105 10.4092 5.5 10.0832 5.5 9.75C5.5 6.85051 7.85051 4.5 10.75 4.5C13.1812 4.5 15.2265 6.1526 15.8237 8.39575C16.1154 8.30113 16.4267 8.25 16.75 8.25C18.4069 8.25 19.75 9.59315 19.75 11.25C19.75 11.5981 19.6907 11.9324 19.5816 12.2433C20.9953 12.7805 22 14.1479 22 15.75C22 17.8211 20.3211 19.5 18.25 19.5H7Z" stroke="#03212F" stroke-width="1.5" stroke-linecap="round" stroke-linejoin="round"/>
</g>
</svg>
