<svg width="41" height="40" viewBox="0 0 41 40" fill="none" xmlns="http://www.w3.org/2000/svg">
<g id="heroicon">
<path id="Subtract" fill-rule="evenodd" clip-rule="evenodd" d="M4.06787 20C4.06787 11.0254 11.3432 3.75 20.3179 3.75C29.2925 3.75 36.5679 11.0254 36.5679 20C36.5679 28.9746 29.2925 36.25 20.3179 36.25C11.3432 36.25 4.06787 28.9746 4.06787 20ZM20.3179 13.75C21.0082 13.75 21.5679 14.3096 21.5679 15V21.25C21.5679 21.9404 21.0082 22.5 20.3179 22.5C19.6275 22.5 19.0679 21.9404 19.0679 21.25V15C19.0679 14.3096 19.6275 13.75 20.3179 13.75ZM20.3179 27.5C21.0082 27.5 21.5679 26.9404 21.5679 26.25C21.5679 25.5596 21.0082 25 20.3179 25C19.6275 25 19.0679 25.5596 19.0679 26.25C19.0679 26.9404 19.6275 27.5 20.3179 27.5Z" fill="#E9280E"/>
</g>
</svg>
