<svg width="72" height="17" viewBox="0 0 72 17" fill="none" xmlns="http://www.w3.org/2000/svg">
<path d="M13.0191 16.3751L8.32214 7.22827L18.2106 12.9141L13.0191 16.3751Z" fill="white"/>
<path d="M13.506 4.87728C12.5941 3.79941 10.5099 3.32298 8.56912 3.62518V1.0407C12.057 0.0876178 15.4475 0.79454 17.1792 2.94402L13.506 4.87728Z" fill="white"/>
<path d="M13.9733 5.81713C14.4166 7.63765 13.0754 10.3416 10.8697 11.5128C8.4209 12.8131 4.81328 11.7201 3.87212 9.94772C3.73235 9.6845 3.64006 9.40273 3.59225 9.10948L0.00298763 10.135C-0.0269362 11.0855 0.167336 12.0071 0.61243 12.8453C2.42794 16.2643 7.72908 17.0026 12.4529 14.4943C16.9351 12.1142 19.287 7.66618 17.9647 4.2966L13.9733 5.81713Z" fill="white"/>
<path d="M5.8783 2.11284C6.23783 1.92192 6.6007 1.74982 6.96513 1.59627L7.49245 3.88132C7.17851 3.98422 6.87599 4.11079 6.59143 4.26189C5.8117 4.67593 5.15739 5.22307 4.65808 5.8338L4.61375 5.74515L2.20113 5.02136C3.15962 3.90272 4.40366 2.89587 5.8783 2.11284Z" fill="white"/>
<path d="M3.60651 8.01984C3.68806 7.55346 3.8618 7.08019 4.11757 6.62392L1.25562 6.30593C0.779735 7.06955 0.430648 7.86229 0.223031 8.65425L3.60651 8.01984Z" fill="white"/>
<mask id="mask0_2133_18550" style="mask-type:alpha" maskUnits="userSpaceOnUse" x="0" y="0" width="19" height="16">
<path d="M13.506 4.87728C12.5941 3.79941 10.5099 3.32298 8.56912 3.62518V1.0407C12.057 0.0876178 15.4475 0.79454 17.1792 2.94402L13.506 4.87728Z" fill="black"/>
<path d="M13.9733 5.81713C14.4166 7.63765 13.0754 10.3416 10.8697 11.5128C8.4209 12.8131 4.81328 11.7201 3.87212 9.94772C3.73235 9.6845 3.64006 9.40273 3.59225 9.10948L0.00298763 10.135C-0.0269362 11.0855 0.167336 12.0071 0.61243 12.8453C2.42794 16.2643 7.72908 17.0026 12.4529 14.4943C16.9351 12.1142 19.287 7.66618 17.9647 4.2966L13.9733 5.81713Z" fill="black"/>
<path d="M5.8783 2.11284C6.23783 1.92192 6.6007 1.74982 6.96513 1.59627L7.49245 3.88132C7.17851 3.98422 6.87599 4.11079 6.59143 4.26189C5.8117 4.67593 5.15739 5.22307 4.65808 5.8338L4.61375 5.74515L2.20113 5.02136C3.15962 3.90272 4.40366 2.89587 5.8783 2.11284Z" fill="black"/>
<path d="M3.60651 8.01984C3.68806 7.55346 3.8618 7.08019 4.11757 6.62392L1.25562 6.30593C0.779735 7.06955 0.430648 7.86229 0.223031 8.65425L3.60651 8.01984Z" fill="black"/>
</mask>
<g mask="url(#mask0_2133_18550)">
<path d="M4.86058 6.23941L1.64685 4.75615L4.61337 1.2952L7.08548 0.800781L7.82711 4.01452L4.86058 6.23941Z" fill="white"/>
<path d="M4.61352 8.71164L0.163732 9.20606H-0.0834782H-0.330688L0.658153 5.74512L4.61352 6.48675V8.71164Z" fill="white"/>
<path d="M18.2106 2.77854L13.0192 5.49785L8.56937 4.2618L8.07495 2.28411V-0.187988L14.5024 0.306432L18.2106 2.77854Z" fill="white"/>
</g>
<path fill-rule="evenodd" clip-rule="evenodd" d="M70.4367 12.0463H71.6451V10.9184H70.6945C70.1467 10.9184 70.0661 10.5962 70.0661 10.1128V7.32533H71.7257V6.19744H70.0661V4.55396H68.5193V6.19744H67.4397V7.32533H68.5193V9.98391L68.5192 10.0598C68.5181 11.1091 68.5171 12.0463 70.4367 12.0463ZM30.9383 9.09772C30.9383 10.6284 31.9373 12.2075 34.1286 12.2075C36.3522 12.2075 37.3189 10.6284 37.3189 9.09772C37.3189 7.56702 36.3522 6.02021 34.1286 6.02021C31.9373 6.02021 30.9383 7.56702 30.9383 9.09772ZM35.7077 9.09772C35.7077 10.0161 35.2726 11.0796 34.1286 11.0796C32.9524 11.0796 32.5496 10.0161 32.5496 9.09772C32.5496 8.16319 32.9846 7.14809 34.1286 7.14809C35.2887 7.14809 35.7077 8.16319 35.7077 9.09772ZM38.704 12.0463H40.2508V8.03429C40.5086 7.61536 41.0403 7.2931 41.6687 7.2931C42.3777 7.2931 42.8449 7.61536 42.8449 8.66268V12.0463H44.3917V8.4371C44.3917 7.24477 43.8761 6.02021 42.0232 6.02021C41.3787 6.02021 40.6214 6.19744 40.0574 6.9064H40.0091L39.848 6.19744H38.704V12.0463ZM47.6462 12.0463H46.0994V6.19744H47.2434L47.4046 6.9064H47.4529C48.0168 6.19744 48.7741 6.02021 49.4186 6.02021C51.2716 6.02021 51.7872 7.24477 51.7872 8.4371V12.0463H50.2404V8.66268C50.2404 7.61536 49.7731 7.2931 49.0642 7.2931C48.4358 7.2931 47.904 7.61536 47.6462 8.03429V12.0463ZM53.1404 9.09772C53.1404 10.7412 54.2361 12.2075 56.2985 12.2075C58.0225 12.2075 59.1182 11.4179 59.3277 10.0645H57.7164C57.6358 10.6929 57.1686 11.1118 56.3307 11.1118C55.3478 11.1118 54.8 10.3384 54.7517 9.48442H59.3599V9.12994C59.3599 7.14809 58.1837 6.02021 56.2824 6.02021C54.2683 6.02021 53.1404 7.45423 53.1404 9.09772ZM57.7003 8.4371H54.8161C54.945 7.71203 55.4928 7.11586 56.2824 7.11586C57.1041 7.11586 57.6358 7.64758 57.7003 8.4371ZM63.5684 12.2075C61.4093 12.2075 60.3942 10.709 60.3942 9.09772C60.3942 7.55091 61.4415 6.02021 63.5684 6.02021C65.1636 6.02021 66.4365 6.7775 66.5976 8.25986H64.9863C64.8252 7.42201 64.2452 7.14809 63.6006 7.14809C62.6017 7.14809 62.0055 8.01817 62.0055 9.09772C62.0055 10.2901 62.6983 11.0796 63.6006 11.0796C64.3579 11.0796 64.9058 10.6929 64.9863 9.91946H66.5976C66.4365 11.3213 65.3408 12.2075 63.5684 12.2075ZM23.2754 9.11462C23.2754 10.6453 24.2743 12.2244 26.4657 12.2244C27.0286 12.2244 27.511 12.1231 27.9176 11.9471L28.343 12.4462L29.8762 12.4033V12.218L28.9426 11.1879C29.4292 10.6087 29.656 9.85601 29.656 9.11462C29.656 7.58392 28.6892 6.03711 26.4657 6.03711C24.2743 6.03711 23.2754 7.58392 23.2754 9.11462ZM28.0447 9.11462C28.0447 10.033 27.6097 11.0965 26.4657 11.0965C25.2894 11.0965 24.8866 10.033 24.8866 9.11462C24.8866 8.18009 25.3217 7.16499 26.4657 7.16499C27.6258 7.16499 28.0447 8.18009 28.0447 9.11462Z" fill="white"/>
</svg>
