<svg width="25" height="22" viewBox="0 0 25 22" fill="none" xmlns="http://www.w3.org/2000/svg">
<g id="Group 45">
<path id="Vector 1" d="M17.8585 21.5L11.5958 9.30434L24.7804 16.8855L17.8585 21.5Z" fill="white"/>
<g id="Subtract">
<path d="M18.508 6.16971C17.2921 4.73255 14.5132 4.09731 11.9255 4.50024V1.05427C16.576 -0.21651 21.0967 0.726054 23.4055 3.59203L18.508 6.16971Z" fill="white"/>
<path d="M19.1311 7.42283C19.7222 9.85019 17.9339 13.4554 14.9929 15.0171C11.7279 16.7508 6.9177 15.2935 5.66283 12.9303C5.47646 12.5793 5.35341 12.2036 5.28967 11.8126L0.503984 13.18C0.464085 14.4474 0.723114 15.6761 1.31657 16.7937C3.73726 21.3524 10.8054 22.3368 17.1038 18.9924C23.0802 15.8189 26.216 9.88825 24.4529 5.39547L19.1311 7.42283Z" fill="white"/>
<path d="M8.33773 2.48378C8.8171 2.22923 9.30094 1.99976 9.78685 1.79503L10.4899 4.84175C10.0713 4.97897 9.66799 5.14772 9.28858 5.34918C8.24893 5.90124 7.37652 6.63076 6.71077 7.44507L6.65167 7.32687L3.43484 6.36182C4.71282 4.8703 6.37155 3.52782 8.33773 2.48378Z" fill="white"/>
<path d="M5.30868 10.3598C5.41742 9.73794 5.64907 9.10692 5.99009 8.49856L2.17416 8.07457C1.53965 9.09273 1.0742 10.1497 0.797374 11.2057L5.30868 10.3598Z" fill="white"/>
</g>
<g id="Mask group">
<mask id="mask0_2052_227" style="mask-type:alpha" maskUnits="userSpaceOnUse" x="0" y="0" width="25" height="21">
<g id="Subtract_2">
<path d="M18.508 6.16971C17.2921 4.73255 14.5132 4.09731 11.9255 4.50024V1.05427C16.576 -0.21651 21.0967 0.726054 23.4055 3.59203L18.508 6.16971Z" fill="black"/>
<path d="M19.1311 7.42283C19.7222 9.85019 17.9339 13.4554 14.9929 15.0171C11.7279 16.7508 6.9177 15.2935 5.66283 12.9303C5.47646 12.5793 5.35341 12.2036 5.28967 11.8126L0.503984 13.18C0.464085 14.4474 0.723114 15.6761 1.31657 16.7937C3.73726 21.3524 10.8054 22.3368 17.1038 18.9924C23.0802 15.8189 26.216 9.88825 24.4529 5.39547L19.1311 7.42283Z" fill="black"/>
<path d="M8.33773 2.48378C8.8171 2.22923 9.30094 1.99976 9.78685 1.79503L10.4899 4.84175C10.0713 4.97897 9.66799 5.14772 9.28858 5.34918C8.24893 5.90124 7.37652 6.63076 6.71077 7.44507L6.65167 7.32687L3.43484 6.36182C4.71282 4.8703 6.37155 3.52782 8.33773 2.48378Z" fill="black"/>
<path d="M5.30868 10.3598C5.41742 9.73794 5.64907 9.10692 5.99009 8.49856L2.17416 8.07457C1.53965 9.09273 1.0742 10.1497 0.797374 11.2057L5.30868 10.3598Z" fill="black"/>
</g>
</mask>
<g mask="url(#mask0_2052_227)">
<path id="Vector 2" d="M6.98127 7.98589L2.69629 6.00821L6.65165 1.39362L9.94779 0.73439L10.9366 5.01937L6.98127 7.98589Z" fill="white"/>
<path id="Vector 3" d="M6.65184 11.2823L0.718798 11.9415H0.389184H0.0595703L1.37803 7.3269L6.65184 8.31575V11.2823Z" fill="white"/>
<path id="Vector 4" d="M24.7804 3.3713L17.8585 6.99705L11.9255 5.34898L11.2662 2.71207V-0.584068L19.8362 0.0751591L24.7804 3.3713Z" fill="white"/>
</g>
</g>
</g>
</svg>
