<svg width="66" height="12" viewBox="0 0 66 12" fill="none" xmlns="http://www.w3.org/2000/svg">
<path id="Union" fill-rule="evenodd" clip-rule="evenodd" d="M63.4163 10.7283H65.0275V9.22445H63.76C63.0296 9.22445 62.9221 8.79478 62.9221 8.15028V4.43363H65.1349V2.92978H62.9221V0.738464H60.8597V2.92978H59.4203V4.43363H60.8597V7.97841L60.8596 8.07964C60.8582 9.47866 60.8569 10.7283 63.4163 10.7283ZM10.7518 6.79682C10.7518 8.83775 12.0837 10.9431 15.0055 10.9431C17.9702 10.9431 19.2592 8.83775 19.2592 6.79682C19.2592 4.75588 17.9702 2.69346 15.0055 2.69346C12.0837 2.69346 10.7518 4.75588 10.7518 6.79682ZM17.1109 6.79682C17.1109 8.02138 16.5308 9.43929 15.0055 9.43929C13.4372 9.43929 12.9001 8.02138 12.9001 6.79682C12.9001 5.55077 13.4802 4.19731 15.0055 4.19731C16.5523 4.19731 17.1109 5.55077 17.1109 6.79682ZM21.106 10.7283H23.1684V5.3789C23.5121 4.82033 24.2211 4.39066 25.059 4.39066C26.0042 4.39066 26.6273 4.82033 26.6273 6.21676V10.7283H28.6897V5.91599C28.6897 4.32621 28.0022 2.69346 25.5316 2.69346C24.6722 2.69346 23.6625 2.92978 22.9106 3.87506H22.8461L22.6313 2.92978H21.106V10.7283ZM33.029 10.7283H30.9666V2.92978H32.4919L32.7067 3.87506H32.7712C33.5231 2.92978 34.5328 2.69346 35.3922 2.69346C37.8628 2.69346 38.5503 4.32621 38.5503 5.91599V10.7283H36.4879V6.21676C36.4879 4.82033 35.8648 4.39066 34.9196 4.39066C34.0817 4.39066 33.3727 4.82033 33.029 5.3789V10.7283ZM40.3545 6.79682C40.3545 8.98813 41.8154 10.9431 44.5653 10.9431C46.864 10.9431 48.3249 9.89044 48.6042 8.08583H46.4559C46.3484 8.92368 45.7254 9.48226 44.6083 9.48226C43.2978 9.48226 42.5673 8.45105 42.5029 7.31242H48.6472V6.83978C48.6472 4.19731 47.0789 2.69346 44.5438 2.69346C41.8584 2.69346 40.3545 4.6055 40.3545 6.79682ZM46.4344 5.91599H42.5888C42.7607 4.94923 43.4911 4.15434 44.5438 4.15434C45.6395 4.15434 46.3484 4.8633 46.4344 5.91599ZM54.2586 10.9431C51.3798 10.9431 50.0263 8.94517 50.0263 6.79682C50.0263 4.7344 51.4227 2.69346 54.2586 2.69346C56.3854 2.69346 58.0826 3.70319 58.2975 5.67967H56.1491C55.9343 4.56253 55.1609 4.19731 54.3015 4.19731C52.9696 4.19731 52.1747 5.35742 52.1747 6.79682C52.1747 8.3866 53.0985 9.43929 54.3015 9.43929C55.3113 9.43929 56.0417 8.92369 56.1491 7.89248H58.2975C58.0826 9.76154 56.6218 10.9431 54.2586 10.9431ZM0.533936 6.81917C0.533936 8.86011 1.86591 10.9655 4.78767 10.9655C5.53829 10.9655 6.18149 10.8305 6.72355 10.5958L7.29085 11.2612L9.33506 11.204V10.957L8.09029 9.58355C8.73902 8.81133 9.04141 7.80769 9.04141 6.81917C9.04141 4.77824 7.7524 2.71582 4.78767 2.71582C1.86591 2.71582 0.533936 4.77824 0.533936 6.81917ZM6.89306 6.81917C6.89306 8.04373 6.313 9.46164 4.78767 9.46164C3.21937 9.46164 2.68229 8.04373 2.68229 6.81917C2.68229 5.57313 3.26234 4.21967 4.78767 4.21967C6.33449 4.21967 6.89306 5.57313 6.89306 6.81917Z" fill="white"/>
</svg>
